<svg xmlns="http://www.w3.org/2000/svg" viewBox="0 0 212.65 212.65"><defs><style>.cls-1{fill:#b1a26a;}.cls-2{fill:#fff;stroke:#fff;stroke-miterlimit:10;}</style></defs><title>Asset 2</title><g id="Layer_2" data-name="Layer 2"><g id="Layer_1-2" data-name="Layer 1"><circle class="cls-1" cx="106.33" cy="106.33" r="106.33"/><rect class="cls-2" x="87.94" y="90.84" width="18.7" height="1.66"/><rect class="cls-2" x="87.81" y="97.66" width="18.7" height="1.66"/><path class="cls-2" d="M102.35,121.54l-15-16.7,2,.14c3.51.24,8.3-.73,10.69-3.06a4.36,4.36,0,0,0,1.44-3.39c-.22-5.4-6.43-6-6.7-6L95,90.84c2.74.24,8,2.14,8.21,7.62a6,6,0,0,1-1.94,4.65c-2.4,2.33-6.53,3.41-10,3.55l12.38,13.77Z"/><path class="cls-2" d="M151.34,138.12H125a8.87,8.87,0,0,1-8.86-8.86V75.86A8.87,8.87,0,0,1,125,67h26.33a8.87,8.87,0,0,1,8.86,8.86v53.4A8.87,8.87,0,0,1,151.34,138.12ZM125,68.66a7.21,7.21,0,0,0-7.2,7.2v53.4a7.21,7.21,0,0,0,7.2,7.2h26.33a7.21,7.21,0,0,0,7.2-7.2V75.86a7.21,7.21,0,0,0-7.2-7.2Z"/><polygon class="cls-2" points="145.13 137.54 143.47 137.54 143.47 67.28 152.63 66.97 152.63 137.29 150.97 137.29 150.97 68.69 145.13 68.88 145.13 137.54"/><path class="cls-2" d="M147.9,143.88H117.08a6.63,6.63,0,0,1-6.62-6.62V79.38a6.63,6.63,0,0,1,6.62-6.62v1.66a5,5,0,0,0-5,5v57.89a5,5,0,0,0,5,5H147.9a5,5,0,0,0,5-5h1.66A6.63,6.63,0,0,1,147.9,143.88Z"/><rect class="cls-2" x="145.29" y="137.29" width="1.66" height="5.76"/><rect class="cls-2" x="137.79" y="137.29" width="1.66" height="6.01"/><path class="cls-2" d="M122.39,167.64H72.21a7.75,7.75,0,0,1-7.75-7.74V52.76A7.75,7.75,0,0,1,72.21,45h50.19a7.75,7.75,0,0,1,7.75,7.74V68h-1.66V52.76a6.09,6.09,0,0,0-6.09-6.07H72.21a6.09,6.09,0,0,0-6.09,6.07V159.9A6.09,6.09,0,0,0,72.21,166h50.19a6.09,6.09,0,0,0,6.09-6.07V143.05h1.66V159.9A7.75,7.75,0,0,1,122.39,167.64Z"/><path class="cls-2" d="M98.76,162.08a5.93,5.93,0,1,1,4.2-1.73A5.92,5.92,0,0,1,98.76,162.08Zm0-10.19a4.27,4.27,0,1,0,3,1.25A4.27,4.27,0,0,0,98.76,151.89Z"/><path class="cls-2" d="M106.31,52.53H88.14a4,4,0,0,1-4-4V45h26.2v3.5A4,4,0,0,1,106.31,52.53ZM85.78,46.68v1.84a2.36,2.36,0,0,0,2.35,2.35h18.17a2.36,2.36,0,0,0,2.35-2.35V46.68Z"/></g></g></svg>