<svg xmlns="http://www.w3.org/2000/svg" viewBox="0 0 212.65 212.65"><defs><style>.cls-1{fill:#b1a26a;}.cls-2,.cls-3{fill:#fff;stroke:#fff;stroke-miterlimit:10;}.cls-2{stroke-linecap:round;}</style></defs><title>Asset 4</title><g id="Layer_2" data-name="Layer 2"><g id="Layer_1-2" data-name="Layer 1"><circle class="cls-1" cx="106.33" cy="106.33" r="106.33"/><rect class="cls-2" x="97.37" y="41.24" width="13" height="2" transform="translate(28.55 125.31) rotate(-69.93)"/><rect class="cls-2" x="111.2" y="60.54" width="13" height="2" transform="translate(-14.17 45.7) rotate(-20.75)"/><path class="cls-3" d="M134.77,166.42a46,46,0,1,1,2.2-1Q135.88,165.93,134.77,166.42ZM98.29,84.3c-.7.31-1.39.64-2.08,1a43.91,43.91,0,1,0,2.08-1Z"/><path class="cls-3" d="M98.69,84.16l-1.37.6L75.91,74.85V73l28.64-12.76,1.36,1.22ZM78.74,74l18.38,8.51L103.34,63Z"/><polygon class="cls-3" points="104.82 62.79 98.14 56.22 77.56 65.39 77.55 74.84 75.56 74.84 75.56 64.09 98.57 53.84 106.22 61.36 104.82 62.79"/><polygon class="cls-3" points="85.06 70.78 83.5 71.28 75.49 65.18 76.7 63.59 83.58 68.82 86.32 60.07 87.7 59.46 96.01 63.35 97.36 54.36 99.34 54.66 97.79 64.97 96.38 65.73 87.88 61.76 85.06 70.78"/><polygon class="cls-3" points="97.03 84.57 82.69 70.49 84.09 69.06 96.61 81.35 95.75 63.88 97.75 63.78 98.73 83.81 97.03 84.57"/><rect class="cls-2" x="62.05" y="57.45" width="2" height="13.08" transform="translate(-7.15 120.06) rotate(-84.03)"/><rect class="cls-2" x="77.49" y="38.76" width="2" height="13" transform="translate(-11.62 35.85) rotate(-24)"/><rect class="cls-2" x="63.3" y="85.53" width="13" height="2" transform="translate(-35.37 50.51) rotate(-32.2)"/></g></g></svg>