<?xml version="1.0" encoding="utf-8"?>
<!-- Generator: Adobe Illustrator 24.0.1, SVG Export Plug-In . SVG Version: 6.00 Build 0)  -->
<svg version="1.1" id="Layer_1" xmlns="http://www.w3.org/2000/svg" xmlns:xlink="http://www.w3.org/1999/xlink" x="0px" y="0px"
	 viewBox="0 0 58 58" style="enable-background:new 0 0 58 58;" xml:space="preserve">
<style type="text/css">
	.st0{fill:#B1A26A;}
	.st1{fill:#FFFFFF;}
</style>
<g id="Group_1920" transform="translate(-15227 -10015)">
	<circle id="Ellipse_38" class="st0" cx="15256" cy="10044" r="28.5"/>
	<g id="_4" transform="translate(15244 10033)">
		<path id="Path_4032" class="st1" d="M15.37,6.93V4.9c0-2.43-1.97-4.4-4.4-4.4s-4.4,1.97-4.4,4.4v2.03c0,2.43,1.97,4.4,4.4,4.4
			S15.37,9.37,15.37,6.93z M14.02,6.93c0,1.68-1.37,3.05-3.05,3.05S7.91,8.62,7.91,6.93V4.9c0-1.68,1.37-3.05,3.05-3.05
			s3.05,1.37,3.05,3.05V6.93z"/>
		<path id="Path_4033" class="st1" d="M8.6,14.05h1.35c0.37,0,0.68-0.3,0.68-0.68s-0.3-0.68-0.68-0.68H8.6c-3.37,0-6.1,2.73-6.1,6.1
			l0,0v2.71c0,0.37,0.3,0.68,0.68,0.68l0,0h6.77c0.37,0,0.68-0.3,0.68-0.68s-0.3-0.68-0.68-0.68h-6.1v-2.03
			c0-2.62,2.12-4.74,4.74-4.75C8.59,14.05,8.6,14.05,8.6,14.05z"/>
		<path id="Path_4034" class="st1" d="M16.73,12.69c-2.62,0-4.74,2.12-4.74,4.74s2.12,4.74,4.74,4.74s4.74-2.12,4.74-4.74
			S19.34,12.69,16.73,12.69C16.73,12.69,16.73,12.69,16.73,12.69z M16.73,20.82c-1.87,0-3.39-1.52-3.39-3.39
			c0-1.87,1.52-3.39,3.39-3.39s3.39,1.52,3.39,3.39C20.11,19.3,18.6,20.82,16.73,20.82L16.73,20.82z"/>
		<path id="Path_4035" class="st1" d="M18.17,16.95h-0.96v-0.96c0-0.27-0.22-0.48-0.48-0.48s-0.48,0.22-0.48,0.48v0.96h-0.96
			c-0.27,0-0.48,0.22-0.48,0.48s0.22,0.48,0.48,0.48h0.96v0.96c0,0.27,0.22,0.48,0.48,0.48s0.48-0.22,0.48-0.48v-0.96h0.96
			c0.27,0,0.48-0.22,0.48-0.48S18.44,16.95,18.17,16.95L18.17,16.95z"/>
	</g>
</g>
</svg>
